G04 ===== Begin FILE IDENTIFICATION =====*
G04 File Format:  Gerber RS274X*
G04 ===== End FILE IDENTIFICATION =====*
%FSLAX24Y24*%
%MOIN*%
%SFA1.0000B1.0000*%
%OFA0.0B0.0*%
%ADD14R,0.787402X0.119676*%
%ADD15R,0.007091X0.667925*%
%ADD16R,0.379846X0.086670*%
%ADD17R,0.637000X0.047606*%
%ADD18R,0.636988X0.047606*%
%ADD19R,0.622000X0.086670*%
%ADD20R,0.007091X0.508382*%
%ADD21R,0.244543X0.284677*%
%ADD22R,0.324294X0.217654*%
%ADD23R,0.244543X0.498677*%
%LNcond*%
%IPPOS*%
%LPD*%
G75*
G36*
G01X35Y-2765D02*
G01Y-3797D01*
G01X105D01*
G01Y-2600D01*
G01X70D01*
G01Y-2765D01*
G01X35D01*
G37*
D14*
X4042Y-3198D03*
D15*
X70Y-7136D03*
D16*
X-1865Y-3198D03*
G36*
G01X-6209Y-2960D02*
G01Y-3632D01*
G01X-3764D01*
G01Y-2765D01*
G01X-4987D01*
G01Y-2960D01*
G01X-6209D01*
G37*
D17*
X-9394Y-3198D03*
G36*
G01X-15822Y-2960D02*
G01Y-3436D01*
G01X-12579D01*
G01Y-2960D01*
G01X-15822D01*
G37*
D18*
X-19007Y-3198D03*
G36*
G01X-24638Y-2765D02*
G01Y-3632D01*
G01X-22192D01*
G01Y-2960D01*
G01X-23415D01*
G01Y-2765D01*
G01X-24638D01*
G37*
D19*
X-27748Y-3198D03*
G36*
G01X-30929Y-2600D02*
G01Y-3797D01*
G01X-30858D01*
G01Y-2765D01*
G01X-30893D01*
G01Y-2600D01*
G01X-30929D01*
G37*
D14*
X-34866Y-3198D03*
D20*
X-30893Y-6339D03*
D21*
X-23415Y-5055D03*
D22*
X-14201Y-4525D03*
D23*
X-4987Y-6125D03*
G36*
G01X-38916Y3296D02*
G01Y3297D01*
G01X-39034D01*
G01Y-16434D01*
G01X-38963Y-16505D01*
G01X8147D01*
G01X8218Y-16434D01*
G01Y3225D01*
G01X8147Y3296D01*
G01X-38916D01*
G01Y3178D01*
G01X8100D01*
G01Y-16387D01*
G01X-38916D01*
G01Y3178D01*
G01Y3296D01*
G37*
M02*

