G04 ===== Begin FILE IDENTIFICATION =====*
G04 File Format:  Gerber RS274X*
G04 ===== End FILE IDENTIFICATION =====*
%FSLAX24Y24*%
%MOIN*%
%SFA1.0000B1.0000*%
%OFA0.0B0.0*%
%ADD14R,0.787402X0.119676*%
%ADD15R,0.006482X0.529484*%
%ADD16R,0.071434X0.129843*%
%ADD17R,0.303798X0.071397*%
%ADD18R,0.213417X0.071397*%
%ADD19R,0.748406X0.129843*%
%ADD20R,0.006482X0.337547*%
%ADD21R,0.122012X0.581669*%
%ADD22R,0.269101X0.584000*%
%ADD23R,0.122012X0.277135*%
%LNcond*%
%IPPOS*%
%LPD*%
G75*
G36*
G01X38Y-2600D02*
G01Y-3898D01*
G01X102D01*
G01Y-2651D01*
G01X70D01*
G01Y-2600D01*
G01X38D01*
G37*
D14*
X4039Y-3249D03*
D15*
X70Y-6546D03*
D16*
X-320Y-3249D03*
G36*
G01X-1897Y-2892D02*
G01Y-3898D01*
G01X-677D01*
G01Y-2600D01*
G01X-1287D01*
G01Y-2892D01*
G01X-1897D01*
G37*
D17*
X-3416Y-3249D03*
G36*
G01X-7626Y-2892D02*
G01Y-3606D01*
G01X-4935D01*
G01Y-2892D01*
G01X-7626D01*
G37*
D18*
X-8693Y-3249D03*
G36*
G01X-10980Y-2600D02*
G01Y-3898D01*
G01X-9760D01*
G01Y-2892D01*
G01X-10370D01*
G01Y-2600D01*
G01X-10980D01*
G37*
D19*
X-14722Y-3249D03*
G36*
G01X-18529Y-2651D02*
G01Y-3898D01*
G01X-18464D01*
G01Y-2600D01*
G01X-18497D01*
G01Y-2651D01*
G01X-18529D01*
G37*
D14*
X-22466Y-3249D03*
D20*
X-18497Y-5586D03*
D21*
X-10370Y-6807D03*
D22*
X-6280Y-6526D03*
D23*
X-1287Y-5284D03*
G36*
G01X-26609Y-1100D02*
G01Y-14559D01*
G01X8159D01*
G01Y2309D01*
G01X-26609D01*
G01Y-1100D01*
G01X-26491D01*
G01Y2191D01*
G01X8041D01*
G01Y-14441D01*
G01X-26491D01*
G01Y-1100D01*
G01X-26609D01*
G37*
M02*

