G04 ===== Begin FILE IDENTIFICATION =====*
G04 File Format:  Gerber RS274X*
G04 ===== End FILE IDENTIFICATION =====*
%FSLAX24Y24*%
%MOIN*%
%SFA1.0000B1.0000*%
%OFA0.0B0.0*%
%ADD14R,1.574000X0.119677*%
%ADD15R,0.007134X0.452323*%
%ADD16R,0.030000X0.130000*%
%ADD17R,0.242705X0.071402*%
%ADD18R,0.204827X0.071402*%
%ADD19R,0.782504X0.130000*%
%ADD20R,0.007134X0.531646*%
%ADD21R,0.122000X0.583870*%
%ADD22R,0.286472X0.584000*%
%ADD23R,0.122000X0.299197*%
%LNcond*%
%IPPOS*%
%LPD*%
G75*
G36*
G01X0Y650D02*
G01Y-650D01*
G01X71D01*
G01Y598D01*
G01X36D01*
G01Y650D01*
G01X0D01*
G37*
D14*
X7941Y0D03*
D15*
X36Y-2912D03*
D16*
X-150Y0D03*
G36*
G01X-1520Y357D02*
G01Y-650D01*
G01X-300D01*
G01Y650D01*
G01X-910D01*
G01Y357D01*
G01X-1520D01*
G37*
D17*
X-2734Y0D03*
G36*
G01X-6812Y357D02*
G01Y-357D01*
G01X-3947D01*
G01Y357D01*
G01X-6812D01*
G37*
D18*
X-7836Y0D03*
G36*
G01X-10080Y650D02*
G01Y-650D01*
G01X-8860D01*
G01Y357D01*
G01X-9470D01*
G01Y650D01*
G01X-10080D01*
G37*
D19*
X-13993Y0D03*
G36*
G01X-17976Y598D02*
G01Y-650D01*
G01X-17905D01*
G01Y650D01*
G01X-17941D01*
G01Y598D01*
G01X-17976D01*
G37*
D14*
X-25846Y0D03*
D20*
X-17941Y-3308D03*
D21*
X-9470Y-3569D03*
D22*
X-5379Y-3277D03*
D23*
X-910Y-2146D03*
G36*
G01X-33974Y-12402D02*
G01X16070D01*
G01Y7933D01*
G01X-33856D01*
G01Y7815D01*
G01X15952D01*
G01Y-12284D01*
G01X-33856D01*
G01Y7815D01*
G01Y7933D01*
G01X-33974D01*
G01Y-12402D01*
G37*
M02*

